Coordinates
version=1
nRows=14
nColumns=24
inDegrees=yes

Units are S.I. units (second, meters, Newtons, ...)
Angles are in degrees.

endheader
time	pelvis_tilt	pelvis_list	pelvis_rotation	pelvis_tx	pelvis_ty	pelvis_tz	hip_flexion_r	hip_adduction_r	hip_rotation_r	knee_angle_r	ankle_angle_r	subtalar_angle_r	mtp_angle_r	hip_flexion_l	hip_adduction_l	hip_rotation_l	knee_angle_l	ankle_angle_l	subtalar_angle_l	mtp_angle_l	lumbar_extension	lumbar_bending	lumbar_rotation
      3.40500000	     -2.28848434	     -1.64885744	     -9.03769949	     -0.78831945	      0.90664406	      0.26338379	    -11.06022468	      6.47165035	      5.58473117	    -23.55230230	     23.18816148	     -3.30180887	      0.00000000	     30.57453383	     -1.33906607	     -7.37277347	     -8.73042269	     10.57437687	     -9.37133272	      0.00000000	    -11.65493294	     -0.17923178	      1.55895371
      3.41000000	     -2.30040876	     -1.47172321	     -9.02773581	     -0.77978851	      0.90544139	      0.26353321	    -10.98439556	      6.09583345	      5.03089496	    -24.62798450	     22.89848051	     -2.33551788	      0.00000000	     30.81289700	     -1.09277155	     -7.45836169	     -9.78561004	     10.33104807	     -9.59255763	      0.00000000	    -11.51246371	     -0.43403274	      1.55434417
      3.41500000	     -2.31850780	     -1.25421596	     -9.00981742	     -0.77120452	      0.90427385	      0.26366271	    -10.83379086	      5.66463252	      4.41831275	    -25.80696491	     22.52933145	     -1.32989135	      0.00000000	     31.05368291	     -0.80262260	     -7.47701028	    -10.87912796	      9.94194532	     -9.89050997	      0.00000000	    -11.34776769	     -0.73313196	      1.53243977
      3.42000000	     -2.34474401	     -0.98733710	     -8.97397613	     -0.76259614	      0.90314536	      0.26375176	    -10.59762281	      5.17000970	      3.75029803	    -27.09907505	     22.07081611	     -0.30051217	      0.00000000	     31.30560907	     -0.45372806	     -7.42552071	    -11.99729208	      9.40353908	    -10.26719036	      0.00000000	    -11.16283507	     -1.08750583	      1.48334657
      3.42500000	     -2.38029156	     -0.66676943	     -8.92639862	     -0.75397781	      0.90207514	      0.26382110	    -10.27665106	      4.60614014	      3.03949250	    -28.49266241	     21.50552876	      0.74038817	      0.00000000	     31.57429660	     -0.04711577	     -7.31012632	    -13.13582062	      8.73773654	    -10.69861744	      0.00000000	    -10.95685509	     -1.50458462	      1.41049522
      3.43000000	     -2.43286869	     -0.27998817	     -8.86092809	     -0.74538169	      0.90105796	      0.26385385	     -9.84886722	      3.95844354	      2.28549671	    -30.00900001	     20.84104561	      1.80197481	      0.00000000	     31.87210507	      0.43301945	     -7.11123419	    -14.28350920	      7.94890942	    -11.17943888	      0.00000000	    -10.72414477	     -1.99495143	      1.29880259
      3.43500000	     -2.50809877	      0.13619617	     -8.76338336	     -0.73687116	      0.90012394	      0.26380052	     -9.32098850	      3.27486865	      1.53644876	    -31.62095666	     20.01835718	      2.83107417	      0.00000000	     32.20546860	      0.97031303	     -6.76701576	    -15.43047457	      7.00595607	    -11.80198470	      0.00000000	    -10.47772489	     -2.50991859	      1.17070085
      3.44000000	     -2.56151471	      0.65546994	     -8.66897447	     -0.72830180	      0.89927270	      0.26381392	     -8.73290903	      2.46028598	      0.75983164	    -33.34032823	     19.07879740	      3.81912556	      0.00000000	     32.55078326	      1.58336585	     -6.57650045	    -16.64327287	      6.24276546	    -12.17162141	      0.00000000	    -10.22935305	     -3.16198631	      0.99138501
      3.44500000	     -2.66364186	      1.17509187	     -8.55248480	     -0.71986339	      0.89848045	      0.26370703	     -8.01702929	      1.63744529	      0.02661150	    -35.15185682	     17.96049983	      4.77759871	      0.00000000	     32.95614101	      2.23286230	     -6.18743331	    -17.85328760	      5.34184674	    -12.78278371	      0.00000000	     -9.94842549	     -3.79394407	      0.84176883
      3.45000000	     -2.74112468	      1.75024906	     -8.43334999	     -0.71138834	      0.89776602	      0.26364073	     -7.26411145	      0.74095644	     -0.67824011	    -37.03591979	     16.68853983	      5.63394995	      0.00000000	     33.36321769	      2.92928946	     -5.88172156	    -19.12644507	      4.64547938	    -13.25374106	      0.00000000	     -9.68122921	     -4.50304577	      0.64002064
      3.45500000	     -2.81090373	      2.34078899	     -8.29949412	     -0.70296892	      0.89711325	      0.26356510	     -6.46284888	     -0.17551576	     -1.31737398	    -38.97811767	     15.27290792	      6.38923103	      0.00000000	     33.78480773	      3.65027689	     -5.57826135	    -20.44447636	      4.05471753	    -13.70857345	      0.00000000	     -9.43590304	     -5.23405680	      0.43822174
      3.46000000	     -2.86768231	      2.93386861	     -8.17162054	     -0.69455070	      0.89651521	      0.26349261	     -5.62603596	     -1.10193274	     -1.88196431	    -40.96229658	     13.70338322	      7.00033034	      0.00000000	     34.19191255	      4.37933988	     -5.28406752	    -21.77753806	      3.62738501	    -14.17139159	      0.00000000	     -9.20614655	     -5.96897046	      0.22712603
      3.46500000	     -2.88559442	      3.51934687	     -8.04338585	     -0.68614935	      0.89599327	      0.26345444	     -4.78984669	     -2.01964595	     -2.36994724	    -42.96962035	     11.99458339	      7.43132656	      0.00000000	     34.55497453	      5.10380872	     -5.03964218	    -23.12148296	      3.37876753	    -14.58876728	      0.00000000	     -9.02859139	     -6.70702277	      0.00999981
      3.47000000	     -2.90807846	      4.07702641	     -7.92186010	     -0.67773610	      0.89552651	      0.26337871	     -3.91541806	     -2.90872964	     -2.77005928	    -44.97833089	     10.15286747	      7.72478172	      0.00000000	     34.88689365	      5.81015327	     -4.80426931	    -24.41795180	      3.24612544	    -15.05134146	      0.00000000	     -8.84816723	     -7.39858794	     -0.17018604
